:version 1.10
:name ASF
:units
  mass 1
  length 1
  angle deg
:documentation
  ASF file generated by Kaydara
:root
  axis xyz
  order  tx ty tz rx ry rz
  position 0 0 0
  orientation 0 0 0
:bonedata
  begin
    id 1
    name RightUpLegDummy
    direction -0.65628 -0.754516 0.00165102
    length 4.76918
    axis 0 0 0 xyz
  end
  begin
    id 2
    name RightUpLeg
    direction -0.145584 -0.923362 0.355256
    length 17.9961
    axis -24.7611 -13.1006 1.78531 xyz
    dof rx ry rz
  end
  begin
    id 3
    name RightLeg
    direction 0.263379 0.172355 -0.949171
    length 13.3386
    axis 89.6202 -21.1929 12.3855 xyz
    dof rx ry rz
  end
  begin
    id 4
    name RightFoot
    direction 0.224283 -0.968777 -0.105675
    length 5.86697
    axis 56.995 -39.6905 17.3365 xyz
    dof rx ry rz
  end
  begin
    id 5
    name RightToes
    direction -0.0806345 -0.9037 0.420506
    length 4.75197
    axis 146.825 -39.7828 17.6019 xyz
    dof rx ry rz
  end
  begin
    id 6
    name SpineDummy
    direction -3.39852e-014 1 9.33296e-014
    length 8.13779
    axis 0 0 0 xyz
  end
  begin
    id 7
    name Spine
    direction -0.156609 0.733703 0.661176
    length 7.14978
    axis 41.2365 5.68757 17.0844 xyz
    dof rx ry rz
  end
  begin
    id 8
    name Spine1
    direction 0 0 0
    length 0
    axis 42.8809 47.8308 -3.36039 xyz
    dof rx ry rz
  end
  begin
    id 9
    name HEadDummy
    direction 0.546431 0.701947 0.456819
    length 3.55512
    axis 42.8809 47.8308 -3.36039 xyz
  end
  begin
    id 10
    name HEad
    direction 0.23444 0.828559 0.508457
    length 7.35827
    axis 51.1864 49.2662 27.4903 xyz
    dof rx ry rz
  end
  begin
    id 11
    name LeftShoulder1Dummy
    direction 0.431183 0.475873 -0.766568
    length 2.49352
    axis 42.8809 47.8308 -3.36039 xyz
  end
  begin
    id 12
    name LeftShoulder1
    direction 0.268187 -0.383402 -0.883786
    length 4.48604
    axis -119.517 0.106469 35.1736 xyz
    dof rx ry rz
  end
  begin
    id 13
    name LeftArm
    direction 0.380567 -0.703221 -0.600541
    length 10.1142
    axis -5.41825 36.2925 7.8293 xyz
    dof rx ry rz
  end
  begin
    id 14
    name LeftForeArm
    direction 0.541071 -0.732356 -0.413396
    length 9.39839
    axis 4.65387 33.7604 7.81644 xyz
    dof rx ry rz
  end
  begin
    id 15
    name LeftHand
    direction 0.847511 -0.389379 -0.360707
    length 3.66142
    axis 7.65593 21.1436 -24.6758 xyz
    dof rx ry rz
  end
  begin
    id 16
    name RightShoulderDummy
    direction -0.692546 0.541855 0.476208
    length 2.49352
    axis 42.8809 47.8308 -3.36039 xyz
  end
  begin
    id 17
    name RightShoulder
    direction -0.870808 -0.316653 0.376065
    length 4.48602
    axis 141.571 51.133 -100.254 xyz
    dof rx ry rz
  end
  begin
    id 18
    name RightArm
    direction 0.366897 -0.87275 0.322015
    length 10.1142
    axis 92.3258 71.2036 138.917 xyz
    dof rx ry rz
  end
  begin
    id 19
    name RightForeArm
    direction 0.702487 -0.694568 0.155197
    length 9.39835
    axis 153.863 41.5092 -176.604 xyz
    dof rx ry rz
  end
  begin
    id 20
    name RightHand
    direction 0.79502 -0.601276 0.0800636
    length 3.66142
    axis 154.247 4.59222 142.9 xyz
    dof rx ry rz
  end
  begin
    id 21
    name LeftUpLegDummy
    direction 0.65628 -0.754516 0.00165102
    length 4.76919
    axis 0 0 0 xyz
  end
  begin
    id 22
    name LeftUpLeg
    direction -0.1277 -0.689368 0.713067
    length 17.9961
    axis -48.3385 -17.8675 0.791927 xyz
    dof rx ry rz
  end
  begin
    id 23
    name LeftLeg
    direction 0.109849 -0.991246 -0.0732378
    length 13.3386
    axis -2.05791 -7.30784 1.72042 xyz
    dof rx ry rz
  end
  begin
    id 24
    name LeftFoot
    direction 0.0448355 -0.272614 0.961078
    length 5.86697
    axis -18.7733 -7.89606 10.2113 xyz
    dof rx ry rz
  end
  begin
    id 25
    name LeftToes
    direction -0.18506 0.293668 0.937823
    length 4.75197
    axis 71.2267 -7.89606 10.2113 xyz
    dof rx ry rz
  end
:hierarchy
  begin
    root RightUpLegDummy SpineDummy LeftUpLegDummy
    RightUpLegDummy RightUpLeg
    RightUpLeg RightLeg
    RightLeg RightFoot
    RightFoot RightToes
    SpineDummy Spine
    Spine Spine1
    Spine1 HEadDummy LeftShoulder1Dummy RightShoulderDummy
    HEadDummy HEad
    LeftShoulder1Dummy LeftShoulder1
    LeftShoulder1 LeftArm
    LeftArm LeftForeArm
    LeftForeArm LeftHand
    RightShoulderDummy RightShoulder
    RightShoulder RightArm
    RightArm RightForeArm
    RightForeArm RightHand
    LeftUpLegDummy LeftUpLeg
    LeftUpLeg LeftLeg
    LeftLeg LeftFoot
    LeftFoot LeftToes
  end

:SAMPLES-PER-SECOND 30
:FULLY-SPECIFIED
:DEGREES
46
root  -3.37474 35.0436 -14.1081 156.97 40.2613 155.29
RightUpLeg  -4.01972 -15.6678 9.48372
RightLeg  -55.056 -22.849 7.64275
RightFoot  32.2208 5.64845 -18.6177
RightToes  -1.27222e-014 -6.36111e-015 6.36111e-015
Spine  -18.7889 -9.51948 -12.1959
Spine1  1.56305 -4.95343 20.0829
HEad  -0.552267 -9.13119 -17.3387
LeftShoulder1  6.36111e-015 -1.33558e-015 6.49777e-015
LeftArm  53.3854 0.383623 -35.1411
LeftForeArm  8.44838 -25.4515 -9.96254
LeftHand  -2.32505 -4.17975 -16.8261
RightShoulder  -4.77083e-015 -6.36111e-015 -3.18055e-015
RightArm  20.4153 -6.82838 11.2116
RightForeArm  -25.136 11.4644 -23.5087
RightHand  0.738962 0.890657 -7.24602
LeftUpLeg  10.3775 34.1512 3.48807
LeftLeg  1.07141 -14.9686 -2.0629
LeftFoot  14.0708 7.0463 -16.2123
LeftToes  1.27222e-014 1.09105e-011 6.96064e-012
47
root  -3.44781 33.9644 -14.8257 150.137 48.4397 149.948
RightUpLeg  -2.30934 -20.261 7.09073
RightLeg  -49.9717 -23.3104 6.34369
RightFoot  31.7335 6.59794 -19.7565
RightToes  -1.27222e-014 -6.36111e-015 6.36111e-015
Spine  -17.3432 -6.25666 -11.2706
Spine1  2.56321 -1.95008 14.286
HEad  -3.15649 -6.46096 -16.5111
LeftShoulder1  6.36111e-015 -1.33558e-015 6.49777e-015
LeftArm  54.7638 5.92978 -23.3494
LeftForeArm  9.80807 -24.2359 -11.5194
LeftHand  -1.94775 -2.72119 -16.0803
RightShoulder  -4.77083e-015 -6.36111e-015 -3.18055e-015
RightArm  14.8086 -2.05714 10.4821
RightForeArm  -26.2386 10.8634 -23.5607
RightHand  1.06671 0.618065 -9.31028
LeftUpLeg  8.16288 30.6386 0.416205
LeftLeg  7.74066 -2.15344 0.26134
LeftFoot  7.57884 3.35874 -9.1191
LeftToes  1.27222e-014 1.09105e-011 6.96064e-012
48
root  -3.50606 32.9843 -15.3995 142.154 53.2489 143.512
RightUpLeg  -0.558757 -22.4793 2.56801
RightLeg  -43.5309 -23.9495 4.91458
RightFoot  27.5024 5.2238 -17.5144
RightToes  -1.27222e-014 -6.36111e-015 6.36111e-015
Spine  -16.5946 -3.92864 -10.2436
Spine1  4.76877 0.442545 10.1075
HEad  -5.16044 -3.98263 -16.6936
LeftShoulder1  6.36111e-015 -1.33558e-015 6.49777e-015
LeftArm  54.4581 9.2666 -12.6143
LeftForeArm  13.8359 -24.7396 -14.2353
LeftHand  -1.63285 -1.36742 -16.1932
RightShoulder  -4.77083e-015 -6.36111e-015 -3.18055e-015
RightArm  9.61103 1.25512 9.08443
RightForeArm  -25.7575 7.18461 -20.57
RightHand  1.23033 0.814105 -11.0025
LeftUpLeg  7.18691 29.3746 -1.3042
LeftLeg  14.2272 5.70521 3.88606
LeftFoot  2.03435 3.4993 -11.0558
LeftToes  1.27222e-014 1.09105e-011 6.96064e-012
49
root  -3.6427 32.5541 -15.6297 136.944 54.8729 138.993
RightUpLeg  -0.0287285 -21.4731 -1.4687
RightLeg  -36.8138 -20.0041 0.963344
RightFoot  23.8298 2.02341 -12.4338
RightToes  -1.27222e-014 -6.36111e-015 6.36111e-015
Spine  -16.8277 -2.46227 -9.69549
Spine1  6.57417 2.0736 8.29334
HEad  -4.70657 -2.87716 -16.9915
LeftShoulder1  6.36111e-015 -1.33558e-015 6.49777e-015
LeftArm  52.377 11.0457 -5.83213
LeftForeArm  19.6275 -27.452 -17.3169
LeftHand  -1.4664 -0.40838 -17.0121
RightShoulder  -4.77083e-015 -6.36111e-015 -3.18055e-015
RightArm  8.20729 2.55305 8.19671
RightForeArm  -23.8216 2.68015 -16.7977
RightHand  1.04868 1.21552 -10.4183
LeftUpLeg  6.51861 29.622 -2.3967
LeftLeg  16.9346 7.70372 5.43729
LeftFoot  -0.111855 4.25897 -14.3463
LeftToes  1.27222e-014 1.09105e-011 6.96064e-012
50
root  -3.88952 32.7968 -15.4083 137.53 54.6318 139.084
RightUpLeg  -0.617838 -18.1047 -2.61205
RightLeg  -34.0476 -15.0852 -1.99466
RightFoot  21.6197 0.191597 -9.21993
RightToes  -1.27222e-014 -6.36111e-015 6.36111e-015
Spine  -17.6018 -1.75237 -9.51845
Spine1  6.1613 2.33892 8.74414
HEad  -2.24768 -3.09394 -16.4291
LeftShoulder1  6.36111e-015 -1.33558e-015 6.49777e-015
LeftArm  51.3754 11.3265 -6.81905
LeftForeArm  20.0918 -29.4347 -16.943
LeftHand  -1.33699 0.0819431 -16.792
RightShoulder  -4.77083e-015 -6.36111e-015 -3.18055e-015
RightArm  12.5778 2.64624 9.37674
RightForeArm  -20.3617 0.293959 -14.2835
RightHand  0.692331 1.4663 -8.00903
LeftUpLeg  5.94763 29.6232 -2.90481
LeftLeg  14.5355 8.47825 5.07341
LeftFoot  2.32518 3.7584 -11.7717
LeftToes  1.27222e-014 1.09105e-011 6.96064e-012
51
root  -4.23293 33.6361 -14.7073 143.588 52.2829 143.711
RightUpLeg  -1.33554 -14.4128 -1.39304
RightLeg  -36.8744 -16.9287 -0.802131
RightFoot  19.5243 0.9807 -9.80704
RightToes  -1.27222e-014 -6.36111e-015 6.36111e-015
Spine  -18.6097 -2.24592 -9.37597
Spine1  4.24168 0.995262 10.7095
HEad  0.165766 -4.12851 -15.6039
LeftShoulder1  6.36111e-015 -1.33558e-015 6.49777e-015
LeftArm  52.3146 9.53117 -16.4948
LeftForeArm  12.1148 -27.7735 -11.0472
LeftHand  -1.14449 0.285419 -14.9816
RightShoulder  -4.77083e-015 -6.36111e-015 -3.18055e-015
RightArm  21.1631 1.40004 12.8182
RightForeArm  -15.9512 0.502161 -12.974
RightHand  0.305695 1.69797 -5.18127
LeftUpLeg  6.25446 28.8046 -2.50224
LeftLeg  7.44817 5.76658 2.33146
LeftFoot  9.16866 3.49018 -9.10055
LeftToes  1.27222e-014 1.09105e-011 6.96064e-012
52
root  -4.62143 34.7618 -13.6449 151.983 46.9416 150.218
RightUpLeg  -1.49298 -11.3262 0.278836
RightLeg  -44.2524 -24.4074 5.45149
RightFoot  17.0842 2.97643 -12.3158
RightToes  -1.27222e-014 -6.36111e-015 6.36111e-015
Spine  -20.352 -3.97181 -9.27545
Spine1  3.26097 -1.23786 14.0887
HEad  1.39848 -5.9879 -15.9281
LeftShoulder1  6.36111e-015 -1.33558e-015 6.49777e-015
LeftArm  51.9411 5.52289 -29.348
LeftForeArm  3.52074 -24.3547 -4.85344
LeftHand  -0.958705 0.358795 -12.9307
RightShoulder  -4.77083e-015 -6.36111e-015 -3.18055e-015
RightArm  30.7912 -2.32658 16.2525
RightForeArm  -12.4302 0.52809 -11.7508
RightHand  -0.0505203 2.00664 -2.62202
LeftUpLeg  7.90371 28.7513 -0.434336
LeftLeg  -2.32127 -6.0551 -0.915254
LeftFoot  17.261 7.57014 -16.1956
LeftToes  1.27222e-014 1.09105e-011 6.96064e-012
53
root  -4.95389 35.6657 -12.482 159.363 39.7751 155.87
RightUpLeg  -0.923994 -7.55351 1.98123
RightLeg  -52.6314 -31.1832 14.1322
RightFoot  14.9147 5.40562 -15.9134
RightToes  -1.27222e-014 -6.36111e-015 6.36111e-015
Spine  -22.8906 -5.95416 -9.21794
Spine1  3.40562 -3.52605 19.0891
HEad  1.69522 -8.79396 -17.3367
LeftShoulder1  6.36111e-015 -1.33558e-015 6.49777e-015
LeftArm  48.4893 -0.496007 -39.5043
LeftForeArm  -0.405071 -23.4916 -1.83842
LeftHand  -0.935799 0.160856 -11.991
RightShoulder  -4.77083e-015 -6.36111e-015 -3.18055e-015
RightArm  39.8402 -8.42911 17.8318
RightForeArm  -11.5919 -2.77474 -10.0469
RightHand  -0.221568 2.04881 -1.16152
LeftUpLeg  10.8781 32.661 4.63122
LeftLeg  -13.049 -23.331 0.813342
LeftFoot  19.9482 15.2412 -30.2707
LeftToes  1.27222e-014 1.09105e-011 6.96064e-012
54
root  -5.25504 36.2001 -11.287 163.957 32.4698 158.898
RightUpLeg  0.0353441 -1.37699 3.17031
RightLeg  -57.7538 -34.4243 19.9323
RightFoot  15.7163 7.28686 -19.2341
RightToes  -1.27222e-014 -6.36111e-015 6.36111e-015
Spine  -24.0486 -8.91108 -10.6244
Spine1  2.93773 -5.90603 24.2975
HEad  1.28524 -11.8087 -18.3928
LeftShoulder1  6.36111e-015 -1.33558e-015 6.49777e-015
LeftArm  43.6117 -6.62962 -45.2031
LeftForeArm  -1.62728 -26.282 -0.587634
LeftHand  -1.1611 -0.616163 -12.1471
RightShoulder  -4.77083e-015 -6.36111e-015 -3.18055e-015
RightArm  47.9117 -15.7804 18.5279
RightForeArm  -13.2015 -9.47476 -7.88331
RightHand  -0.130693 1.70254 -1.39754
LeftUpLeg  11.7327 23.4626 4.73548
LeftLeg  -20.9323 -24.8827 -3.07734
LeftFoot  15.7627 17.5896 -37.8962
LeftToes  1.27222e-014 1.09105e-011 6.96064e-012
55
root  -5.48856 36.3678 -10.054 166.642 25.5802 160.123
RightUpLeg  1.77932 4.76658 3.5493
RightLeg  -58.9598 -33.4835 19.921
RightFoot  17.0429 7.27122 -19.3469
RightToes  -1.27222e-014 -6.36111e-015 6.36111e-015
Spine  -23.4391 -12.8488 -12.7422
Spine1  1.4603 -8.74748 28.6729
HEad  -0.354871 -14.1135 -18.6092
LeftShoulder1  6.36111e-015 -1.33558e-015 6.49777e-015
LeftArm  38.6648 -11.8579 -47.2829
LeftForeArm  -3.27444 -31.1561 0.764572
LeftHand  -1.45848 -1.66461 -12.3043
RightShoulder  -4.77083e-015 -6.36111e-015 -3.18055e-015
RightArm  54.0731 -23.5018 17.6873
RightForeArm  -14.7422 -15.5531 -4.89294
RightHand  0.136316 1.16051 -2.7871
LeftUpLeg  11.619 16.1889 4.06529
LeftLeg  -24.5649 -18.465 -5.03326
LeftFoot  9.08003 13.6235 -34.6523
LeftToes  1.27222e-014 1.09105e-011 6.96064e-012
56
root  -5.59077 36.2109 -8.95122 168.741 19.4589 161.585
RightUpLeg  4.52086 6.72145 4.09905
RightLeg  -60.7832 -30.0188 17.8086
RightFoot  12.6681 6.65442 -17.753
RightToes  -1.27222e-014 -6.36111e-015 6.36111e-015
Spine  -23.7527 -15.797 -13.2709
Spine1  0.725667 -11.3849 33.5635
HEad  -4.17765 -15.5606 -18.8642
LeftShoulder1  6.36111e-015 -1.33558e-015 6.49777e-015
LeftArm  33.0775 -17.3797 -47.4453
LeftForeArm  -6.64249 -35.2874 2.89388
LeftHand  -1.49252 -1.9941 -11.381
RightShoulder  -4.77083e-015 -6.36111e-015 -3.18055e-015
RightArm  58.1354 -30.4079 3.07097
RightForeArm  -10.9674 -12.2124 1.78235
RightHand  0.540259 0.355807 -4.70474
LeftUpLeg  12.8907 14.5178 6.91398
LeftLeg  -26.2411 -9.57548 -6.61221
LeftFoot  7.41348 9.97969 -26.7978
LeftToes  1.27222e-014 1.09105e-011 6.96064e-012
57
root  -5.63119 35.8015 -8.00339 170.282 15.8064 163.653
RightUpLeg  6.67536 4.58824 5.60978
RightLeg  -65.2959 -27.3286 17.7868
RightFoot  3.79095 8.06984 -19.4019
RightToes  -1.27222e-014 -6.36111e-015 6.36111e-015
Spine  -25.4733 -17.4615 -13.5644
Spine1  2.30729 -12.762 39.7953
HEad  -10.8849 -15.8679 -19.4253
LeftShoulder1  6.36111e-015 -1.33558e-015 6.49777e-015
LeftArm  25.2079 -22.5703 -45.2721
LeftForeArm  -11.3217 -38.1303 5.48954
LeftHand  -1.10873 -1.14942 -9.26397
RightShoulder  -4.77083e-015 -6.36111e-015 -3.18055e-015
RightArm  63.6828 -32.8134 -19.5625
RightForeArm  -6.21326 -9.43444 7.97428
RightHand  1.10586 -0.92812 -6.77304
LeftUpLeg  15.3506 16.9157 14.8223
LeftLeg  -23.8914 -5.46074 -6.01984
LeftFoot  9.23131 8.06681 -20.7961
LeftToes  1.27222e-014 1.09105e-011 6.96064e-012
